<svg width="387" height="116" viewBox="0 0 387 116" fill="none" xmlns="http://www.w3.org/2000/svg">
<path d="M42.2301 20.4516L42.2301 11.4712L331.849 11.4712L331.849 20.4516L42.2301 20.4516Z" fill="white"/>
<path fill-rule="evenodd" clip-rule="evenodd" d="M281.437 29.4319L281.437 74.3337L276.495 74.3337L15.5417 74.3337L6.6456 89.3009L187.534 89.3009L350.629 89.3009L350.629 74.3337L350.629 57.8697L331.849 29.4319L281.437 29.4319ZM284.403 83.314L284.403 74.3337L312.079 74.3337L312.079 83.314L284.403 83.314ZM318.01 83.314L318.01 74.3337L347.664 74.3337L347.664 83.314L318.01 83.314Z" fill="white"/>
<path d="M318.01 74.3337L318.01 83.314L347.664 83.314L347.664 74.3337L318.01 74.3337Z" fill="white"/>
<path d="M284.403 74.3337L284.403 83.314L312.079 83.314L312.079 74.3337L284.403 74.3337Z" fill="white"/>
<path d="M279.46 29.4319L274.518 36.9156L274.518 71.3402L276.495 74.3337L281.437 74.3337L281.437 29.4319L279.46 29.4319Z" fill="white"/>
<path d="M302.195 104.268L302.195 108.758L300.218 111.752L268.587 111.752L266.61 107.262L251.783 107.262L251.783 102.771L302.195 102.771L302.195 104.268Z" fill="white"/>
<path d="M343.71 98.2813L350.629 89.3009L187.534 89.3009L191.487 93.7911L241.899 93.7911L248.818 98.2813L343.71 98.2813Z" fill="white"/>
<path d="M40.2532 36.9156L22.4609 71.3402L274.518 71.3402L274.518 36.9156L40.2532 36.9156Z" fill="white"/>
<path d="M274.518 36.9156L40.2532 36.9156L22.4609 71.3402L274.518 71.3402M274.518 36.9156L279.46 29.4319L281.437 29.4319M274.518 36.9156L274.518 71.3402M281.437 29.4319L281.437 74.3337L276.495 74.3337M281.437 29.4319L331.849 29.4319L350.629 57.8697L350.629 74.3337L350.629 89.3009M276.495 74.3337L274.518 71.3402M276.495 74.3337L15.5417 74.3337L6.6456 89.3009L187.534 89.3009M350.629 89.3009L343.71 98.2813L248.818 98.2813L241.899 93.7911L191.487 93.7911L187.534 89.3009M350.629 89.3009L187.534 89.3009M0.714844 80.3206L42.2301 20.4516M42.2301 20.4516L42.2301 11.4712L331.849 11.4712M42.2301 20.4516L331.849 20.4516L331.849 11.4712M331.849 11.4712L367.68 66.1017L385.596 93.4169M153.926 114.745L214.222 114.745L222.13 102.771L240.91 102.771M50.1378 0.994141L134.157 0.994141M284.403 74.3337L284.403 83.314L312.079 83.314L312.079 74.3337L284.403 74.3337ZM318.01 74.3337L318.01 83.314L347.664 83.314L347.664 74.3337L318.01 74.3337ZM302.195 104.268L302.195 108.758L300.218 111.752L268.587 111.752L266.61 107.262L251.783 107.262L251.783 102.771L302.195 102.771L302.195 104.268Z" stroke="white"/>
</svg>
